<?xml version="1.0" encoding="UTF-8"?>
<svg id="Layer_2" data-name="Layer 2" xmlns="http://www.w3.org/2000/svg" viewBox="0 0 164.03 38.68">
  <defs>
    <style>
      .cls-1 {
        fill: #1c1c1c;
      }
    </style>
  </defs>
  <g id="Layer_1-2" data-name="Layer 1">
    <g>
      <path class="cls-1" d="M5.88,4.97c.39-.68.95-1.24,1.64-1.63.7-.39,1.63-.6,2.75-.6,1.22,0,2.36.23,3.4.7,1.02.47,1.8,1.08,2.3,1.85l.58.89-.07-4.62-.15-.09c-.38-.23-.81-.45-1.31-.64-.48-.19-1-.34-1.53-.45-.52-.12-1.06-.2-1.61-.28-.55-.07-1.09-.1-1.61-.1-1.59,0-3.04.29-4.31.87-1.27.58-2.34,1.35-3.21,2.32-.87.96-1.56,2.08-2.04,3.34-.47,1.25-.71,2.58-.71,3.95s.23,2.71.71,3.98c.47,1.27,1.15,2.4,2.04,3.38.87.98,1.96,1.76,3.21,2.35,1.27.58,2.71.89,4.31.89.51,0,1.05-.03,1.6-.09.55-.06,1.11-.15,1.66-.26.55-.12,1.08-.26,1.56-.44s.93-.39,1.31-.63l.15-.09v-4.44l-.57.82c-.49.73-1.28,1.31-2.31,1.73-1.05.44-2.2.66-3.39.66s-2.05-.2-2.75-.61c-.7-.41-1.25-.96-1.64-1.66-.41-.71-.68-1.54-.83-2.49-.15-.96-.23-2-.23-3.06s.07-2.1.23-3.06c.15-.95.44-1.78.83-2.48Z"/>
      <path class="cls-1" d="M25.51,11.55h9.25v-2.74h-9.25V2.99h10.15V.25h-14.86v20.67h14.95v-2.74h-10.24v-6.63Z"/>
      <path class="cls-1" d="M53.26,10.93c.51-.36.96-.77,1.35-1.24.39-.47.71-.99.95-1.56.23-.57.35-1.18.35-1.81,0-.84-.22-1.66-.63-2.4-.41-.73-.96-1.37-1.61-1.91-.65-.54-1.4-.96-2.21-1.28-.81-.32-1.64-.48-2.47-.48h-8.96v20.67h4.76v-8.57h2.47l4.68,8.57h4.99l-4.97-9.24c.45-.22.9-.47,1.31-.76ZM44.78,2.99h3.05c.45,0,.89.09,1.28.28.41.19.76.42,1.06.73.29.29.54.66.71,1.05.17.39.26.83.26,1.28s-.09.89-.26,1.28c-.17.41-.42.76-.71,1.05-.29.29-.65.54-1.06.71-.39.17-.83.26-1.28.26h-3.05V2.99Z"/>
      <path class="cls-1" d="M65.68,11.55h9.26v-2.74h-9.26V2.99h10.15V.25h-14.85v20.67h14.94v-2.74h-10.24v-6.63Z"/>
      <path class="cls-1" d="M96.22,11.83c-.31-.45-.67-.86-1.08-1.22-.31-.28-.63-.51-.95-.73.45-.45.86-.98,1.22-1.54.45-.73.68-1.53.68-2.39,0-.79-.17-1.54-.51-2.23-.33-.68-.77-1.28-1.32-1.79-.54-.51-1.18-.92-1.89-1.22-.71-.31-1.48-.45-2.27-.45h-9.92v20.67h10.66c.84,0,1.66-.16,2.41-.47.76-.31,1.44-.74,2.02-1.28.58-.54,1.05-1.18,1.41-1.89.35-.73.54-1.53.54-2.37,0-.57-.09-1.12-.28-1.63-.19-.51-.44-.99-.74-1.44ZM91.12,7.06c-.16.35-.36.67-.63.92-.26.26-.57.47-.93.63-.35.16-.74.23-1.16.23h-3.46V2.99h3.46c.42,0,.8.07,1.16.23.36.16.67.36.93.63.26.26.47.57.63.92.16.35.23.74.23,1.15s-.07.8-.23,1.15ZM84.95,11.58h4.2c.45,0,.9.07,1.31.23.41.16.79.38,1.09.64.31.26.54.6.71.98.17.38.26.8.26,1.25s-.09.89-.26,1.31c-.17.42-.42.8-.73,1.12-.31.32-.67.58-1.09.77-.41.19-.84.29-1.29.29h-4.2v-6.6Z"/>
      <path class="cls-1" d="M114.75,10.93c.51-.36.96-.77,1.35-1.24.39-.47.71-.99.95-1.56.23-.57.35-1.18.35-1.81,0-.84-.22-1.66-.63-2.4-.41-.73-.96-1.37-1.61-1.91-.65-.54-1.4-.96-2.21-1.28-.81-.32-1.64-.48-2.47-.48h-8.96v20.67h4.76v-8.57h2.47l4.68,8.57h4.99l-4.97-9.24c.45-.22.9-.47,1.31-.76ZM106.27,2.99h3.05c.45,0,.89.09,1.28.28.41.19.76.42,1.06.73.29.29.54.66.71,1.05.17.39.26.83.26,1.28s-.09.89-.26,1.28c-.17.41-.42.76-.71,1.05-.29.29-.65.54-1.06.71-.39.17-.83.26-1.28.26h-3.05V2.99Z"/>
      <path class="cls-1" d="M136.74,13.71c0,.77-.13,1.44-.38,2.01-.25.55-.6,1.02-1.03,1.4-.45.38-.97.67-1.57.86-.61.2-1.27.34-1.93.39h-.03s-.03,0-.04.01h-.19c-1.35-.1-2.43-.52-3.19-1.25-.74-.71-1.13-1.86-1.13-3.41V.26h-4.76v13.78c.04.99.26,1.91.65,2.71.39.8.92,1.52,1.57,2.11.64.6,1.41,1.08,2.25,1.44.84.36,1.76.61,2.73.73.47.06.95.09,1.43.09h.36l1.08-.09c.96-.12,1.88-.36,2.69-.73.83-.36,1.56-.86,2.17-1.46.63-.6,1.12-1.31,1.48-2.11.36-.8.57-1.72.6-2.72V.23h-2.75v13.48h-.01Z"/>
      <path class="cls-1" d="M160.22.25l-5.99,9.31L148.06.25h-4.29v20.67h2.65V6.03l6.63,10.4,6.24-9.64v14.13h4.74V.25h-3.81Z"/>
      <path class="cls-1" d="M61.89,32.17h-4.63v-4.22h-2.14v10.58h2.14v-4.38h4.63v4.38h2.14v-10.58h-2.14v4.22Z"/>
      <path class="cls-1" d="M84.28,33.83c0,1.91-.73,2.83-2.25,2.83s-2.26-.92-2.26-2.83v-5.88h-2.14v5.95c0,3.04,1.59,4.78,4.38,4.78s4.38-1.74,4.38-4.78v-5.95h-2.12v5.88Z"/>
      <path class="cls-1" d="M107.39,33.01c.66-.5,1.02-1.29,1.02-2.21,0-1.78-1.39-2.84-3.72-2.84h-4.7v10.58h4.97c2.54,0,3.95-1.05,3.95-2.96.02-1.18-.54-2.1-1.52-2.57ZM102.15,32.26v-2.45h2.35c1.17,0,1.76.42,1.76,1.23s-.59,1.21-1.76,1.21h-2.35v.02ZM106.75,35.4c0,.55-.19,1.29-1.9,1.29h-2.7v-2.58h2.7c1.71,0,1.9.73,1.9,1.29Z"/>
    </g>
  </g>
</svg>