<?xml version="1.0" encoding="UTF-8"?>
<svg id="Layer_2" data-name="Layer 2" xmlns="http://www.w3.org/2000/svg" xmlns:xlink="http://www.w3.org/1999/xlink" viewBox="0 0 151 20">
  <defs>
    <style>
      .cls-1 {
        fill: none;
      }

      .cls-2 {
        mask: url(#mask);
      }

      .cls-3 {
        fill: #fff;
      }

      .cls-4 {
        fill: #f68b1f;
      }

      .cls-5 {
        fill: #0d1019;
      }

      .cls-6 {
        clip-path: url(#clippath);
      }

      .cls-7 {
        fill: #04af54;
      }
    </style>
    <clipPath id="clippath">
      <rect class="cls-1" width="151" height="20"/>
    </clipPath>
    <mask id="mask" x="0" y=".12" width="150.97" height="19.89" maskUnits="userSpaceOnUse">
      <g id="mask0_7393_1272" data-name="mask0 7393 1272">
        <path class="cls-3" d="M150.96.13H0v19.87h150.96V.13Z"/>
      </g>
    </mask>
  </defs>
  <g id="Layer_1-2" data-name="Layer 1">
    <g class="cls-6">
      <g class="cls-2">
        <g>
          <path class="cls-5" d="M148.72,2.24c1.5,1.36,2.25,3.45,2.25,6.17v11.23h-2.76v-10.98c0-1.98-.5-3.58-1.62-4.57-.6-.55-1.31-.98-2.08-1.25-.77-.28-1.59-.4-2.41-.35-2.12,0-3.86.62-5.12,1.85-1.25,1.23-1.87,2.96-1.87,5.18v10.12h-2.76V.26h2.62v3.58c.75-1.19,1.84-2.13,3.12-2.73,1.41-.65,2.94-.98,4.49-.99,2.65.01,4.65.75,6.14,2.11Z"/>
          <path class="cls-5" d="M44.29,14.95l1.62,1.6c-.89,1.01-2,1.81-3.25,2.34-1.41.61-2.95.9-4.49.87-1.96.05-3.9-.42-5.61-1.36-1.43-.89-2.67-2.07-3.62-3.45-.85-1.51-1.28-3.21-1.25-4.94-.01-1.71.42-3.4,1.25-4.91.79-1.5,2.01-2.74,3.49-3.58,1.5-.89,3.22-1.36,4.97-1.36,1.79-.05,3.55.38,5.12,1.24,1.48.79,2.7,1.99,3.49,3.45.84,1.6,1.26,3.38,1.25,5.18h-16.95c.12,3.58,1.99,5.18,2.99,5.93,1.44.96,3.13,1.47,4.87,1.48,3.12-.03,5.11-1.14,6.11-2.49ZM32.44,4.33c-1.1,1.06-1.8,2.45-2,3.95h14.1c-.25-1.76-1.17-3.35-2.59-4.44-1.25-.94-2.79-1.43-4.37-1.36-2.15-.11-3.65.62-5.14,1.85Z"/>
          <path class="cls-5" d="M67.37.26l-8.83,19.37h-2.76L46.95.26h2.87l7.48,16.41L64.79.26h2.58Z"/>
          <path class="cls-5" d="M71.99,18.52c-1.5-.85-2.78-2.03-3.74-3.45-.9-1.54-1.38-3.28-1.37-5.06-.07-1.78.41-3.55,1.37-5.06.86-1.51,2.16-2.72,3.74-3.46,1.63-.81,3.42-1.23,5.24-1.23s3.62.42,5.24,1.23c1.52.78,2.77,1.99,3.62,3.46.86,1.49,1.29,3.19,1.25,4.91.07,1.79-.41,3.55-1.37,5.06-.85,1.47-2.1,2.67-3.62,3.45-1.61.85-3.41,1.28-5.24,1.23-1.78.13-3.56-.25-5.12-1.09ZM81.1,16.55c1.14-.62,2.06-1.57,2.62-2.73.67-1.21,1.01-2.57,1-3.95.07-1.38-.28-2.76-1-3.94-.6-1.13-1.51-2.08-2.62-2.73-1.14-.64-2.43-.98-3.74-.99-1.5,0-2.76.25-3.74.99-1.14.62-2.06,1.57-2.62,2.73-.67,1.21-1.01,2.57-1,3.94-.07,1.39.28,2.76,1,3.95.6,1.13,1.51,2.08,2.62,2.73,1.14.64,2.43.98,3.74.99,1.3-.06,2.58-.4,3.74-.99Z"/>
          <path class="cls-5" d="M94.82,18.52c-1.53-.81-2.82-2-3.75-3.45-.81-1.57-1.23-3.3-1.25-5.06-.07-1.78.41-3.55,1.37-5.06.89-1.48,2.18-2.68,3.74-3.46,1.65-.85,3.5-1.28,5.37-1.23,1.59,0,3.17.33,4.61.99,1.33.63,2.45,1.61,3.25,2.84l-2.12,1.23c-.58-.95-1.45-1.69-2.49-2.1-1.07-.45-2.21-.7-3.37-.74-1.36-.07-2.71.27-3.86.99-1.15.64-2.11,1.59-2.76,2.73-.66,1.21-1.01,2.57-.99,3.95-.07,1.38.27,2.76.99,3.94.62,1.13,1.59,2.04,2.76,2.59,1.18.64,2.51.98,3.86.99,1.17,0,2.32-.25,3.37-.74,1.02-.45,1.88-1.18,2.49-2.1l1.99,1.36c-.76,1.25-1.89,2.24-3.24,2.84-1.45.66-3.03,1-4.62.99-1.86-.16-3.68-.66-5.35-1.49Z"/>
          <path class="cls-5" d="M114.54,18.52c-1.5-.85-2.78-2.03-3.74-3.45-.9-1.54-1.38-3.28-1.37-5.06-.07-1.78.41-3.55,1.37-5.06.86-1.51,2.16-2.72,3.74-3.46,1.63-.81,3.42-1.23,5.24-1.23s3.62.42,5.24,1.23c1.52.79,2.77,1.99,3.61,3.46.91,1.54,1.38,3.28,1.38,5.06.07,1.78-.41,3.55-1.38,5.06-.84,1.47-2.1,2.67-3.61,3.45-1.62.81-3.42,1.24-5.24,1.24s-3.62-.42-5.24-1.24ZM123.64,16.55c1.14-.62,2.06-1.57,2.62-2.73.66-1.21,1.01-2.57.99-3.95.07-1.38-.28-2.76-.99-3.94-.6-1.13-1.51-2.08-2.62-2.73-1.14-.64-2.43-.98-3.74-.99-1.5,0-2.76.25-3.74.99-1.14.61-2.06,1.57-2.62,2.73-.65,1.22-.99,2.57-1,3.94-.07,1.39.28,2.76,1,3.95.6,1.13,1.51,2.08,2.62,2.73,1.14.64,2.43.98,3.74.99,1.3-.08,2.57-.42,3.74-.99Z"/>
          <path class="cls-7" d="M1.37,2.85c-.37,0-.72-.14-.98-.4C.14,2.2,0,1.85,0,1.49s.15-.71.4-.96C.66.27,1.01.12,1.37.12h15.97c.37,0,.72.14.98.4.26.26.4.6.4.96s-.15.71-.4.96c-.26.26-.61.4-.98.4H1.37Z"/>
          <path class="cls-4" d="M1.37,11.24c-.34,0-.68-.12-.93-.35-.25-.23-.41-.55-.44-.89,0-.36.15-.7.41-.96.26-.25.61-.4.97-.4h9.85c.34.03.66.19.89.44.23.25.36.58.36.92-.02.32-.16.62-.39.85-.23.23-.53.36-.86.39H1.37Z"/>
          <path class="cls-7" d="M1.37,19.76c-.37,0-.72-.14-.98-.4-.26-.26-.4-.6-.4-.96s.15-.71.4-.96c.26-.26.61-.4.98-.4h16.09c.37,0,.72.14.98.4.26.26.4.6.4.96s-.15.71-.4.96c-.26.26-.61.4-.98.4H1.37Z"/>
        </g>
      </g>
    </g>
  </g>
</svg>