<?xml version="1.0" encoding="UTF-8"?>
<svg id="Layer_2" data-name="Layer 2" xmlns="http://www.w3.org/2000/svg" viewBox="0 0 98.35 66">
  <defs>
    <style>
      .cls-1 {
        fill: #005529;
      }
    </style>
  </defs>
  <g id="Layer_1-2" data-name="Layer 1">
    <g>
      <path id="Shape" d="M89.22,50.96c-3.52,0-4.42,2.07-4.42,6.01s.9,5.98,4.42,5.98,4.42-2.07,4.42-5.97-.9-6.01-4.42-6.01ZM89.22,66c-7.26,0-9.13-4.01-9.13-9.03s1.87-9.07,9.13-9.07,9.13,4.01,9.13,9.07-1.84,9.03-9.13,9.03ZM79.79,65.2c0,.13-.09.23-.29.23h-5.06c-.17,0-.25,0-.42-.2l-5.09-6.89h-.64v6.7c0,.29-.12.38-.45.38h-4.03c-.29,0-.39-.09-.39-.38v-20.78c0-.34,0-.4.4-.5l4-.91c.31-.1.48-.08.48.28v12.26h.64l5.05-6.75c.14-.16.22-.19.38-.19h4.73c.23,0,.35.16.14.39l-6.14,7.76,6.57,8.36s.13.16.13.22h0ZM60.52,51.3c-2.18,0-3.67.38-4.67.7v13.05c0,.29-.13.39-.42.39h-4.08c-.24,0-.37-.09-.37-.39v-13.95c0-.52.06-.64.93-1.05,1.02-.47,4.62-1.93,8.55-2.15.38-.02.52.01.52.39v2.61c0,.33-.1.4-.45.4h0ZM39.01,50.96c-2.18,0-4.36.83-4.36,4.87h8.5c0-2.1-.68-4.87-4.14-4.87h0ZM47.91,58.1c0,.36-.02.61-.77.61h-12.45c.11,1.72.54,4.15,6.2,4.15,1.84,0,3.76-.62,4.79-.91.36-.1.5-.05.5.28v2.25c0,.26-.06.36-.3.46-1.12.46-3.56,1.06-6.17,1.06-7.49,0-9.84-3.19-9.84-8.97,0-6.43,2.99-9.13,9.5-9.13,3.35,0,8.54,1.4,8.54,8.47v1.73h0ZM26.18,65.43h-4.04c-.3,0-.42-.09-.42-.39v-11.37c0-1.58.12-2.59-1.26-2.59-2.14,0-4.72.74-4.72.74v13.22c0,.29-.11.39-.44.39h-4c-.33,0-.44-.1-.44-.39v-11.37c0-1.64.13-2.58-1.29-2.58-1.98,0-4.69.73-4.69.73v13.22c0,.29-.14.39-.44.39H.44C.12,65.43,0,65.34,0,65.04v-14.3C0,50.11-.01,50.07,1.63,49.54c3.91-1.27,7.85-1.63,10.05-1.63,2.07,0,2.77.6,3.19,1.09,2.75-.73,5.02-1.09,7.64-1.09,3.33,0,4.09,1.41,4.09,5.19v11.95c0,.29-.12.39-.42.39h0Z"/>
      <path id="Path" class="cls-1" d="M96.65,0c-2.07,0-7.2,1.08-13.83,2.77-5.76,1.47-13.16,3.98-16.76,5.21,0,0-1.35.5-1.78.5-.56,0-.88-.25-.88-1.01V.95c0-.64-.38-.95-.89-.95-2.07,0-7.2,1.08-13.83,2.77-5.76,1.47-13.16,3.98-16.76,5.21,0,0-1.35.5-1.77.5-.56,0-.89-.25-.89-1.01V.95c0-.64-.38-.95-.89-.95-2.07,0-7.2,1.07-13.83,2.77C9.85,3.97,4.49,5.63.9,7.03.26,7.28,0,7.75,0,8.31v28.04c0,.65.35.98.83,1.06,2.43.39,8.11.56,13.8.56s11.39-.17,13.81-.56c.5-.08.83-.41.83-1.05v-18.17c0-.56.45-.93,1.02-.93h2.84c.56,0,1.02.37,1.02.93v18.17c0,.65.35.98.82,1.06,2.43.39,8.12.56,13.8.56s11.39-.17,13.81-.56c.5-.08.83-.41.83-1.05v-18.17c0-.56.45-.93,1.02-.93h2.84c.56,0,1.02.37,1.02.93v18.17c0,.65.35.98.82,1.06,2.43.39,8.12.56,13.8.56s11.39-.17,13.81-.56c.49-.08.82-.41.82-1.05V.95c0-.64-.38-.95-.89-.95"/>
    </g>
  </g>
</svg>