<?xml version="1.0" encoding="UTF-8"?>
<svg id="Layer_2" data-name="Layer 2" xmlns="http://www.w3.org/2000/svg" viewBox="0 0 161.64 44.28">
  <defs>
    <style>
      .cls-1 {
        fill: #009;
      }
    </style>
  </defs>
  <g id="Layer_1-2" data-name="Layer 1">
    <g id="Layer_2-2" data-name="Layer 2-2">
      <g id="Layer_2-2-2" data-name="Layer 2-2">
        <g id="uuid-03db7e3e-5ba5-48c8-b1a7-0e0669c674e5" data-name="Layer 1-2">
          <g id="uuid-7752c544-d185-433d-8e95-384effbd900a" data-name="Layer 2-2-2">
            <g id="Layer_1-2-2" data-name="Layer 1-2-2">
              <rect class="cls-1" x="34.25" y="41.54" width="19.58" height=".6"/>
              <rect class="cls-1" x="107.82" y="41.54" width="19.58" height=".6"/>
              <g>
                <path class="cls-1" d="M77.68,29.41l-.15-.06c-.88-.34-1.08-1.19-1.08-2.14V6.33c0-.3-.24-.54-.54-.54h-7.67c-.3,0-.54.24-.54.54v1.42c0,.21.12.4.31.49.81.37,1.14,1.19,1.14,2.08v16.99c0,.89-.33,1.7-1.14,2.08-.19.09-.31.28-.31.49v1.23c0,.3.24.54.54.54h9.25c.3,0,.54-.24.54-.54v-1.21c0-.22-.14-.42-.34-.5"/>
                <path class="cls-1" d="M72.67,4.55c2.26,0,4.13-1.02,4.13-2.26s-1.86-2.28-4.13-2.28-4.13,1.02-4.13,2.28,1.85,2.26,4.13,2.26"/>
                <path class="cls-1" d="M11.02,1.08H.54C.24,1.08,0,1.32,0,1.62v1.23C0,3.06.12,3.25.31,3.34c.81.37,1.33,1.19,1.33,2.08v21.9c0,.89-.52,1.7-1.33,2.08-.19.09-.31.28-.31.49v1.23c0,.3.24.54.54.54h9.94c.3,0,.54-.24.54-.54v-1.21c0-.22-.14-.42-.35-.5l-.15-.06c-.88-.34-1.46-1.19-1.46-2.14v-5.97h2.49c4.01,0,9.11-2.09,9.11-10.09,0-6.14-3.69-10.08-9.64-10.08M12.32,15.83c0,2.18-.69,3.25-1.88,3.25h-1.39V3.17h1.02c1.67-.02,2.25,1.14,2.25,3.19v9.47Z"/>
                <path class="cls-1" d="M30.99,5.5c-7.09,0-9.57,5.91-9.57,13.21s3.27,13.21,9.57,13.21,9.57-5.91,9.57-13.21-2.47-13.21-9.57-13.21M32.56,25.86c0,1.82-.47,3.64-1.57,3.64s-1.57-1.74-1.57-3.64v-14.73c0-1.41.23-3.2,1.57-3.2s1.57,1.94,1.57,3.2v14.73Z"/>
                <path class="cls-1" d="M46.79,9.21c0-.44.31-.93.93-.93,1.45,0,3.19,2.27,4,3.46.3.44.8.71,1.34.71h1.38c.35,0,.61-.33.52-.67l-1.45-5.75c-.06-.24-.28-.41-.52-.41h-1.53c-.22,0-.41.13-.5.33l-.12.3c-.08.2-.28.33-.5.33-.25,0-.5-.06-.73-.17-.87-.44-2.01-.89-3.05-.89-1.84,0-5.44,1.1-5.44,6.07,0,2.55.86,4.29,2.67,7.15.39.61.66,1.05,1.88,2.59,1.34,1.72,3.89,4.99,3.89,6.63,0,.93-.52,1.05-1.02,1.05-1.74,0-2.95-2-3.53-3.24-.27-.57-.84-.93-1.47-.93h-1.6c-.35,0-.6.32-.53.66l1.37,5.99c.06.25.27.42.53.42h1.63c.26,0,.49-.19.53-.45l.05-.27c.04-.26.27-.45.53-.45h.02c.31,0,.6.09.86.26.8.5,1.83.93,3.03.93,2.47,0,5.43-1.76,5.43-6.36,0-3.96-1.93-6.92-4.26-9.87-.12-.15-4.35-5.06-4.35-6.47"/>
                <path class="cls-1" d="M157.39,15.68c-.12-.15-4.35-5.06-4.35-6.47,0-.44.31-.93.93-.93,1.45,0,3.19,2.27,4,3.46.3.44.8.71,1.34.71h1.38c.35,0,.61-.33.52-.67l-1.45-5.75c-.06-.24-.28-.41-.52-.41h-1.53c-.22,0-.41.13-.5.33l-.12.3c-.08.2-.28.33-.5.33-.25,0-.5-.06-.73-.17-.87-.44-2.01-.89-3.05-.89-1.84,0-5.44,1.1-5.44,6.07,0,2.55.86,4.29,2.67,7.15.39.61.66,1.05,1.88,2.59,1.34,1.72,3.89,4.99,3.89,6.63,0,.93-.52,1.05-1.02,1.05-1.74,0-2.95-2-3.53-3.23-.27-.57-.84-.94-1.47-.94h-1.6c-.35,0-.6.32-.53.66l1.37,5.99c.06.25.27.42.53.42h1.63c.26,0,.49-.19.53-.45l.05-.27c.04-.26.27-.45.53-.45h.02c.31,0,.6.09.86.26.8.5,1.83.93,3.03.93,2.47,0,5.43-1.76,5.43-6.36,0-3.96-1.93-6.92-4.26-9.87"/>
                <path class="cls-1" d="M65.93,5.79h-1.49V1.31c0-.3-.24-.54-.54-.54h-1.83c-.23,0-.44.15-.51.36-1.22,3.62-4.3,4.6-5.43,4.84-.25.05-.43.27-.43.53v1.16c0,.3.24.54.54.54h.88v19.77c0,2.5,1,3.69,2.95,3.69h5.58c.3,0,.54-.24.54-.54v-1.21c0-.22-.14-.42-.34-.5l-.15-.06c-.88-.34-1.25-1.01-1.25-2.14V8.21h1.49c.3,0,.54-.24.54-.54v-1.33c0-.3-.24-.54-.54-.54"/>
                <path class="cls-1" d="M110.03,29.41l-.15-.06c-.88-.34-1.25-1.01-1.25-2.14V10.1c0-1.47-.44-4.55-4.77-4.55-2.38,0-4.59,1.67-6.1,3.18-.53-1.49-1.74-3.13-4.4-3.13s-4.68,1.58-5.88,2.82v-2.09c0-.3-.24-.54-.54-.54h-7.67c-.3,0-.54.24-.54.54v1.42c0,.21.12.4.31.49.81.38,1.14,1.19,1.14,2.08v16.99c0,.89-.33,1.7-1.14,2.08-.19.09-.31.28-.31.49v1.23c0,.3.24.54.54.54h9.25c.3,0,.54-.24.54-.54v-1.21c0-.22-.14-.42-.35-.5l-.15-.06c-.88-.34-1.08-1.19-1.08-2.14V10.87s.55-1.05,2.04-1.05,1.32,1.33,1.32,1.74v16.42c0,2.51,1,3.69,2.95,3.69h5.57c.3,0,.54-.24.54-.54v-1.21c0-.22-.14-.42-.34-.5l-.15-.06c-.88-.34-1.25-1.01-1.25-2.14V10.87s.35-1.12,1.72-1.12,1.42,1.13,1.42,1.8v16.42c0,2.51,1,3.69,2.95,3.69h5.57c.3,0,.54-.24.54-.54v-1.21c0-.22-.14-.42-.34-.5"/>
                <path class="cls-1" d="M127.51,23.16h-2.67c-.29,0-.53.23-.54.53-.15,5.48-2.72,5.61-3.7,5.61s-2.39-.64-2.39-2.67-.15-2.71,4.31-4.52c4.46-1.81,5.26-4.65,5.26-7.82,0-2.99-1.03-8.78-8.12-8.78s-9.57,5.91-9.57,13.21,3.63,13.21,9.93,13.21c4.54,0,7.79-3.32,8.03-8.19.02-.31-.23-.57-.54-.57M118.18,9.99c0-1.1.36-2.15,1.47-2.15s1.49,1.02,1.49,2.15v4.14c0,5.21-2.96,6.61-2.96,6.61v-10.75Z"/>
                <path class="cls-1" d="M146.27,23.16h-2.67c-.29,0-.53.23-.54.53-.15,5.48-2.72,5.61-3.7,5.61s-2.39-.64-2.39-2.67-.15-2.71,4.31-4.52c4.46-1.81,5.26-4.65,5.26-7.82,0-2.99-1.03-8.78-8.12-8.78s-9.57,5.91-9.57,13.21,3.63,13.21,9.93,13.21c4.54,0,7.79-3.32,8.03-8.19.02-.31-.23-.57-.54-.57M136.94,9.99c0-1.1.36-2.15,1.47-2.15s1.49,1.02,1.49,2.15v4.14c0,5.21-2.96,6.61-2.96,6.61v-10.75Z"/>
                <path class="cls-1" d="M65.19,40.45h3.16v.4c0,1.72-1.09,3.43-3.36,3.43-2.01,0-3.53-1.35-3.53-3.46s1.43-3.5,3.54-3.5c1.14,0,1.99.41,2.56.89l-.68.83c-.43-.39-1.1-.71-1.93-.71-1.46,0-2.4,1.07-2.4,2.48s.98,2.46,2.47,2.46,2.18-1,2.26-1.89h-2.09v-.93h0Z"/>
                <path class="cls-1" d="M75.17,44.14l-1.95-2.77h-.6v2.77h-.99v-6.67h2.28c1.17,0,2.04.73,2.04,1.96,0,1.01-.62,1.72-1.56,1.9l2.02,2.81h-1.25,0ZM72.63,38.4v2.03h1.12c.8,0,1.14-.43,1.14-1s-.33-1.03-1.14-1.03h-1.12Z"/>
                <path class="cls-1" d="M84.68,37.47v4.1c0,1.66-1.05,2.72-2.68,2.72s-2.68-1.06-2.68-2.72v-4.1h1.04v4.07c0,1.08.71,1.72,1.64,1.72s1.64-.64,1.64-1.72v-4.07h1.04,0Z"/>
                <path class="cls-1" d="M90.58,37.47c1.33,0,2.07.87,2.07,2.02s-.75,2.02-2.07,2.02h-1.29v2.63h-.99v-6.67h2.28ZM90.44,40.58c.68,0,1.14-.37,1.14-1.09s-.45-1.09-1.14-1.09h-1.15v2.17h1.15Z"/>
                <path class="cls-1" d="M98.11,37.47c1.33,0,2.07.87,2.07,2.02s-.75,2.02-2.07,2.02h-1.29v2.63h-.99v-6.67h2.28ZM97.98,40.58c.68,0,1.14-.37,1.14-1.09s-.45-1.09-1.14-1.09h-1.15v2.17h1.15Z"/>
              </g>
            </g>
          </g>
        </g>
      </g>
    </g>
  </g>
</svg>