<?xml version="1.0" encoding="UTF-8"?>
<svg id="Layer_2" data-name="Layer 2" xmlns="http://www.w3.org/2000/svg" viewBox="0 0 171.07 46.47">
  <g id="Layer_1-2" data-name="Layer 1">
    <g>
      <path d="M38.59,46.47c-1.75-1.65-3.49-3.29-5.26-4.97-11.13,6.36-23.43,1.49-28.95-5.96C-1.67,27.37-1.44,15.95,4.98,8.15,11.53.19,22.59-2.25,31.84,2.22c8.46,4.08,14.04,14.21,12.31,22.45h-11.15c4.56,4.6,9.1,9.18,13.61,13.72-2.69,2.71-5.38,5.42-8.02,8.08ZM32.59,24.51c1.37-4.01-1.13-9.4-5.34-11.75-4.39-2.46-10.13-1.3-13.43,2.71-3.19,3.87-3.16,9.71.08,13.55,2.67,3.17,8.05,4.99,10.51,3.57-1.17-1.19-2.35-2.39-3.55-3.61,2.74-2.7,5.46-5.38,8.25-8.13,1.1,1.15,2.26,2.37,3.48,3.66Z"/>
      <path d="M162.4,7.82h3.61v.9h-1.3v3.33h-1.01v-3.33h-1.3v-.9Z"/>
      <path d="M169.01,9.62l.55-1.8h1.5v4.23h-.96v-1.24c0-.79.01-1.47.04-2.04-.07.29-.17.61-.28.96l-.73,2.32h-.82l-.73-2.32c-.09-.28-.18-.6-.28-.96.02.67.03,1.34.03,2.04v1.24h-.96v-4.23h1.5l.56,1.82c.08.26.17.61.29,1.05.09-.38.19-.73.28-1.07Z"/>
      <path d="M73.68,12.2c0,3-.94,5.45-2.7,7.1l2.13,2.52-1.93,1.61-2.28-2.7c-1.11.52-2.38.77-3.79.77-5.27,0-8.56-3.79-8.56-9.31s3.29-9.28,8.56-9.28,8.56,3.74,8.56,9.28ZM59.79,12.2c0,4.38,2.35,6.73,5.32,6.73.72,0,1.39-.12,1.96-.4l-1.46-1.76,1.91-1.61,1.53,1.83c.87-1.16,1.39-2.72,1.39-4.8,0-4.36-2.35-6.71-5.32-6.71s-5.32,2.35-5.32,6.71Z"/>
      <path d="M84.16,21.18v-1.83c-.77,1.39-2.13,2.15-3.94,2.15-3.17,0-4.46-2.08-4.46-5.25V7.87h2.95v7.67c0,1.81.25,3.56,2.45,3.56s3-1.73,3-4.13v-7.1h2.95v13.32h-2.95Z"/>
      <path d="M98.17,15.94v-1.01c-4.21.4-5.92,1.01-5.92,2.52,0,1.16.97,1.86,2.45,1.86,2.18,0,3.47-1.09,3.47-3.37ZM94.06,21.51c-2.9,0-4.93-1.56-4.93-3.99,0-3.34,4.11-4.13,8.96-4.65v-.25c0-2.28-1.29-2.97-2.77-2.97s-2.6.79-2.67,2.4h-2.9c.2-2.7,2.45-4.58,5.67-4.58s5.69,1.46,5.62,5.72c0,.64-.05,2.23-.05,3.44,0,1.68.12,3.44.4,4.55h-2.7c-.1-.57-.17-.89-.25-1.81-.87,1.46-2.4,2.13-4.38,2.13Z"/>
      <path d="M106.47,7.87v1.86c.77-1.39,2.15-2.15,4.04-2.15,3.22,0,4.53,2.08,4.53,5.25v8.37h-2.95v-7.65c0-1.81-.25-3.56-2.52-3.56s-3.1,1.73-3.1,4.13v7.08h-2.95V7.87h2.95Z"/>
      <path d="M118.02,7.87v-3.52h2.95v3.52h2.67v2.13h-2.67v7.25c0,1.36.32,1.68,1.58,1.68h1.07v2.25h-2.18c-2.85,0-3.42-.77-3.42-3.49v-7.7h-1.98v-2.13h1.98Z"/>
      <path d="M133.74,21.18v-1.83c-.77,1.39-2.13,2.15-3.94,2.15-3.17,0-4.45-2.08-4.45-5.25V7.87h2.95v7.67c0,1.81.25,3.56,2.45,3.56s3-1.73,3-4.13v-7.1h2.95v13.32h-2.95Z"/>
      <path d="M142.45,14.1v7.08h-2.95V7.87h2.95v1.86c.77-1.39,2.08-2.15,3.86-2.15,2.08,0,3.27.87,3.89,2.35,1.16-1.68,2.67-2.35,4.33-2.35,3.17,0,4.36,2.08,4.36,5.25v8.37h-2.95v-7.65c0-1.81-.17-3.56-2.35-3.56s-2.92,1.73-2.92,4.13v7.08h-2.95v-7.65c0-1.81-.17-3.56-2.35-3.56s-2.92,1.73-2.92,4.13Z"/>
      <path d="M69.54,25.02h2.52v17.95h-2.52v-8.14h-9.43v8.14h-2.52v-17.95h2.52v7.62h9.43v-7.62Z"/>
      <path d="M77.02,36.36c0,3.56,1.93,4.95,3.99,4.95s3.99-1.53,3.99-4.95-1.93-4.95-3.99-4.95-3.99,1.31-3.99,4.95ZM81,29.43c3.09,0,6.39,2.1,6.39,6.93s-3.29,6.93-6.39,6.93-6.39-2.1-6.39-6.93,3.29-6.93,6.39-6.93Z"/>
      <path d="M96.22,29.6v2.4c-.47-.07-.89-.1-1.26-.1-2.08,0-3.12,1.14-3.12,4.08v6.98h-2.25v-13.32h2.2v2.33c.67-1.51,2.01-2.33,3.76-2.4.22,0,.4,0,.67.02Z"/>
      <path d="M97.89,29.65h2.25v13.32h-2.25v-13.32ZM97.89,25.02h2.25v2.72h-2.25v-2.72Z"/>
      <path d="M102.26,42.97v-1.96l7.7-9.41h-7.2v-1.96h9.83v1.96l-7.67,9.41h7.82v1.96h-10.47Z"/>
      <path d="M116.35,36.36c0,3.56,1.93,4.95,3.99,4.95s3.98-1.53,3.98-4.95-1.93-4.95-3.98-4.95-3.99,1.31-3.99,4.95ZM120.33,29.43c3.09,0,6.39,2.1,6.39,6.93s-3.29,6.93-6.39,6.93-6.39-2.1-6.39-6.93,3.29-6.93,6.39-6.93Z"/>
      <path d="M131.17,29.65v2.01c.77-1.26,2.05-2.23,4.31-2.23,3.22,0,4.38,2.08,4.38,5.12v8.42h-2.25v-7.75c0-2.05-.35-3.84-2.92-3.84-2.18,0-3.52,1.49-3.52,4.36v7.23h-2.25v-13.32h2.25Z"/>
    </g>
  </g>
</svg>