<?xml version="1.0" encoding="UTF-8"?>
<svg id="Layer_2" data-name="Layer 2" xmlns="http://www.w3.org/2000/svg" viewBox="0 0 180.85 40.49">
  <defs>
    <style>
      .cls-1 {
        fill: #090909;
      }
    </style>
  </defs>
  <g id="Layer_1-2" data-name="Layer 1">
    <g>
      <path class="cls-1" d="M18.47,9.05V.9c-.23,0-.87-.06-1.44-.06-4.5,0-7.5,1.21-9.24,5.92l-.87-.23c.53-1.43.81-2.95.81-4.48v-1.03H0v28.71h7.91v-14.3c0-4.82,3.52-6.72,7.45-6.72,1.05,0,2.1.11,3.12.34h0Z"/>
      <path class="cls-1" d="M35.04.32c-8.49,0-14.32,5.74-14.32,15.1s5.43,14.93,14.49,14.99c7.56.06,12.76-4.02,14.14-10.34h-7.79c-.32,1.35-1.1,2.54-2.21,3.38-1.1.84-2.47,1.27-3.85,1.22h-.23c-3.93,0-6.58-3.16-6.7-7.47v-.29h20.61v-1.61c0-9.36-5.6-14.99-14.14-14.99ZM28.69,12.15c.29-3.45,2.37-6.49,6.12-6.49h.35c3.69,0,5.89,2.93,6.18,6.49h-12.64Z"/>
      <path class="cls-1" d="M68.65,33.77c-2.42,0-3.23-1.44-3.23-3.85v-12.98h5.54v-5.63h-1.44c-3.93,0-3.98-2.53-3.98-5.46V1h-8.08v5.27c0,3.33,2.31,4.25,5.31,4.82l-.12.86c-1.91-.45-3.87-.66-5.83-.63h-3.64v5.63h4.33v13.38c0,6.26,2.89,10.16,9.29,10.16,1.52.02,3.04-.18,4.5-.57v-6.49c-.86.24-1.76.35-2.66.34h0Z"/>
      <path class="cls-1" d="M75.86,1v39.03h7.91v-17.69c0-3.56,2.71-5.57,5.95-5.57h.17c3.12,0,5.48,1.55,5.48,5.05v18.2h7.85v-19.58c0-7.29-4.5-9.82-9.58-9.82s-8.49,2.3-9.7,5.28l-.92-.29c.51-1.2.76-2.49.75-3.79V1h-7.91Z"/>
      <path class="cls-1" d="M111.65,8.62c.58.02,1.15-.08,1.69-.29.54-.21,1.03-.52,1.44-.93.41-.4.74-.88.97-1.41.22-.53.34-1.1.34-1.68s-.12-1.15-.34-1.68c-.23-.53-.55-1.01-.97-1.41-.41-.4-.91-.72-1.44-.93-.54-.21-1.11-.31-1.69-.29-1.17-.02-2.3.42-3.14,1.23-.84.81-1.33,1.91-1.36,3.08,0,.58.13,1.15.37,1.68.23.53.57,1.01.99,1.41.42.4.91.71,1.45.92.54.21,1.12.31,1.7.3ZM107.67,11.32v28.71h7.91V11.32h-7.91Z"/>
      <path class="cls-1" d="M120.23,11.31v28.71h7.91v-17.69c0-3.56,2.77-5.57,5.95-5.57h.17c3.12,0,5.48,1.55,5.48,5.05v18.2h7.85v-19.58c0-7.29-4.56-9.82-9.64-9.82s-8.31,2.24-9.64,5.28l-.92-.29c.57-1.16.86-2.44.87-3.73v-.57h-8.02Z"/>
      <path class="cls-1" d="M171.84,40.03h9.01l-11.78-17.29-.63-.75,11.08-10.68h-9.01l-10.51,10.28V1h-7.91v39.03h7.91v-9.88l3.29-3.22,8.54,13.09Z"/>
    </g>
  </g>
</svg>