<?xml version="1.0" encoding="UTF-8"?>
<svg id="Layer_2" data-name="Layer 2" xmlns="http://www.w3.org/2000/svg" xmlns:xlink="http://www.w3.org/1999/xlink" viewBox="0 0 142.08 44.67">
  <defs>
    <style>
      .cls-1 {
        fill: none;
      }

      .cls-2 {
        mask: url(#mask);
      }

      .cls-3 {
        fill: url(#linear-gradient-2);
      }

      .cls-4 {
        fill: url(#linear-gradient);
      }

      .cls-5 {
        fill: #fff;
      }

      .cls-6 {
        fill: #0035c2;
      }

      .cls-7 {
        fill: #002a74;
      }

      .cls-8 {
        clip-path: url(#clippath);
      }
    </style>
    <clipPath id="clippath">
      <rect class="cls-1" width="142.08" height="44.67"/>
    </clipPath>
    <mask id="mask" x="4.8" y="5.3" width="46.69" height="39.37" maskUnits="userSpaceOnUse">
      <g id="mask0_68_2" data-name="mask0 68 2">
        <path class="cls-5" d="M51.48,5.3H4.8v39.37h46.69V5.3Z"/>
      </g>
    </mask>
    <linearGradient id="linear-gradient" x1="28.91" y1="-802.75" x2="27.9" y2="-786.73" gradientTransform="translate(0 -764.94) scale(1 -1)" gradientUnits="userSpaceOnUse">
      <stop offset="0" stop-color="#002a74"/>
      <stop offset="1" stop-color="#0035c2"/>
    </linearGradient>
    <linearGradient id="linear-gradient-2" x1="101.07" y1="-806.32" x2="101.07" y2="-777.81" xlink:href="#linear-gradient"/>
  </defs>
  <g id="Layer_1-2" data-name="Layer 1">
    <g class="cls-8">
      <g>
        <path class="cls-7" d="M40.7,1.86c.06-.05.36-.09.47-.13.44-.17.83-.49,1.02-.94.07-.16.17-.67.22-.74.06-.08.17-.06.22.03.08.14.12.56.22.78.16.34.45.63.79.8.18.09.79.2.77.38-.16.2-.46.2-.71.32-.35.17-.67.48-.84.83-.1.2-.17.67-.23.77-.07.1-.18.1-.24,0-.06-.11-.12-.5-.19-.68-.21-.49-.61-.83-1.09-1.04-.11-.05-.68-.12-.42-.38Z"/>
        <path class="cls-7" d="M47.27,10.43c.06-.06.41-.1.53-.15.5-.19.93-.55,1.15-1.06.08-.18.19-.76.25-.83.07-.09.19-.07.25.03.09.15.13.63.25.88.18.39.51.71.89.9.2.1.88.22.87.43-.18.22-.52.23-.8.36-.39.19-.75.54-.94.94-.11.22-.19.76-.26.87-.07.11-.2.11-.27,0-.07-.12-.13-.56-.22-.77-.23-.55-.69-.94-1.22-1.17-.13-.06-.76-.14-.47-.42h0Z"/>
        <path class="cls-7" d="M.1,18.07c.08-.08.53-.13.69-.19.65-.25,1.21-.7,1.5-1.35.1-.23.24-.97.32-1.06.1-.11.25-.09.33.04.12.2.17.8.32,1.13.23.49.67.9,1.16,1.14.26.13,1.15.28,1.13.55-.24.28-.68.29-1.04.46-.51.24-.98.69-1.23,1.2-.14.29-.25.97-.34,1.11-.1.14-.26.14-.35,0-.09-.16-.17-.72-.29-.98-.3-.71-.9-1.2-1.6-1.49-.17-.07-.99-.18-.61-.54h0Z"/>
        <g class="cls-2">
          <g>
            <path class="cls-4" d="M42.76,13.64c.88,1.05,1.65,2.22,2.3,3.49,2.87.93,4.72,2.79,1.96,6.24-.14.18-.3.36-.47.55-.52.58-1.11,1.14-1.77,1.68-.46.38-.95.74-1.46,1.1-.53.37-1.1.73-1.68,1.09-.48.29-.98.57-1.48.84-.57.31-1.16.61-1.75.9-.53.25-1.06.5-1.6.74-.62.27-1.24.53-1.86.78-.55.22-1.1.43-1.65.63-.63.23-1.25.44-1.86.64-.56.18-1.12.36-1.66.52-.66.2-1.3.37-1.91.53-.34.09-.68.17-1,.25-.26.06-.53.12-.81.18-.61.13-1.26.26-1.96.38-.6.1-1.23.2-1.87.29-.64.09-1.29.16-1.95.23-.65.06-1.31.11-1.97.14-.73.03-1.47.05-2.18.03-.75-.02-1.48-.06-2.19-.15-.99-.12-1.92-.3-2.76-.58-.66-.22-1.27-.5-1.79-.84-2.37-1.54-1.57-3.83-.17-5.67-.16-1.37-.16-2.77-.01-4.16-3.12,2.67-5.4,6.02-3.94,9.56,1.23,3,4.71,4.24,8.27,4.68,1.09.13,2.18.19,3.22.21.06,0,.11,0,.17,0,.72,0,1.41-.01,2.06-.04.4-.02.79-.04,1.15-.07.22-.02.45-.04.67-.06.64-.06,1.29-.13,1.93-.21.61-.08,1.22-.17,1.83-.27.66-.11,1.32-.24,1.97-.37.6-.12,1.2-.26,1.79-.41.65-.16,1.31-.33,1.96-.52.58-.17,1.16-.34,1.74-.52.65-.21,1.29-.42,1.93-.65.58-.21,1.16-.43,1.73-.65.65-.26,1.29-.53,1.93-.8.58-.25,1.15-.52,1.72-.79.16-.07.31-.15.46-.22.41-.2.86-.43,1.33-.68.51-.27,1.04-.57,1.59-.9.56-.33,1.14-.69,1.71-1.08.08-.05.15-.1.23-.15.85-.58,1.69-1.2,2.48-1.87,2.35-1.99,4.22-4.36,4.36-6.86.26-4.73-4.63-6.55-8.71-7.13h0Z"/>
            <path class="cls-7" d="M45.24,30.86c-.08.05-.15.1-.23.15-.58.38-1.15.74-1.71,1.08-.07.04-.14.08-.21.12.07.31.14.62.21.93-.33.97-.96,1.85-1.59,2.66-.04-.89-.14-1.78-.29-2.66-.36.19-.71.37-1.04.53-.15.08-.31.15-.46.22-.11.05-.23.11-.34.16.16,1.27.17,2.57.22,3.85-.08.21-1.46,1.33-1.73,1.49-.06.04-.12.11-.2.05.1-1.49.07-3.06-.08-4.59-.5.22-1.01.42-1.52.63-.14.06-.28.11-.42.16.1,1.16.11,2.3.04,3.37-.01.25-.1,1.7-.18,1.78-.53.23-1.11.54-1.66.69-.06.02-.13.06-.18,0,.16-1.75.28-3.45.2-5.17-.48.17-.96.33-1.45.48-.17.05-.35.11-.52.16.03,1.71-.13,3.43-.38,5.11-.14.24-1.46.27-1.78.35.2-1.63.37-3.29.38-4.94-.46.13-.93.25-1.39.36-.2.05-.4.1-.6.14-.05,1.52-.25,3.02-.49,4.42-.08.13-1.58,0-1.7-.09-.08-.05-.06-.09-.05-.16.03-.66.25-1.47.32-2.16.06-.55.1-1.09.12-1.63-.45.09-.91.17-1.37.25-.21.04-.43.07-.64.1-.07,1.03-.25,2.06-.48,3.08-.05.12-.05.04-.12.03-.51-.08-1.03-.31-1.52-.48.15-.79.26-1.58.3-2.38-.44.05-.87.1-1.31.14-.22.02-.45.04-.67.06h0c-.05.45-.14.9-.25,1.34l-1.61-.98c0-.09.02-.17.03-.26-.44.01-.9.02-1.37.02-.06,0-.11,0-.17,0-.81,0-1.65-.05-2.5-.13,2.64,2.59,6.11,4.48,10.21,5.21,10.51,1.89,19.76-5.16,21.75-14.63-.51.39-1.03.77-1.56,1.13h0Z"/>
            <path class="cls-6" d="M28.58,21.03c-2.25.11-4.1,1.93-4.05,4.22.04,1.83,1.45,3.17,2.24,4.71.34.66.6,1.35.79,2.08.61-.16,1.25-.34,1.91-.53-.26-.96-.62-1.89-1.13-2.8-.76-1.35-2.38-2.88-1.44-4.53,1.09-1.9,3.17-1.07,4.45.11,1.55,1.41,2.61,3.33,3.28,5.43.62-.25,1.24-.51,1.86-.78-1.35-3.7-4.29-8.07-7.93-7.9Z"/>
            <path class="cls-6" d="M27.92,17.14c-4.99.35-8.47,5.25-6.96,10.06.53,1.69,1.68,2.84,2.37,4.41.18.4.32.81.45,1.23.7-.12,1.36-.25,1.96-.38-.18-.62-.41-1.23-.7-1.84-.76-1.56-1.83-2.57-2.23-4.34-1.22-5.47,4.85-9.05,9.34-6.06,2.67,1.77,4.72,4.79,5.94,7.97.6-.29,1.18-.59,1.75-.9-.6-1.53-1.38-2.98-2.33-4.31-2.26-3.17-5.46-6.13-9.61-5.84h0Z"/>
            <path class="cls-6" d="M28.59,25.17c-.31.45-.08.79.16,1.18.63,1,1.22,1.65,1.72,2.79.26.6.48,1.22.66,1.84.61-.2,1.23-.42,1.86-.64-.52-1.78-1.34-3.53-2.54-4.84-.42-.47-1.38-1.02-1.86-.33Z"/>
            <path class="cls-6" d="M39.48,19.57c-1.28-1.65-2.92-3.22-4.77-4.38-1.1-.69-2.28-1.24-3.49-1.57-.81-.22-1.62-.35-2.41-.4-2.61-.16-5.06.59-7.07,1.96-1.75,1.19-3.15,2.86-4.03,4.8-1.07,2.37-1.34,5.15-.48,8.01.48,1.61,1.15,2.43,1.98,3.81.3.5.54,1.02.73,1.57.66-.06,1.32-.14,1.95-.23-.18-.59-.42-1.16-.71-1.72-1.19-2.23-2.28-3.28-2.45-6.02-.17-2.73.74-5.08,2.27-6.83,2.44-2.8,6.48-4.07,10.25-2.88.9.28,1.78.71,2.62,1.28,3.38,2.31,5.86,5.72,7.46,9.48.58-.35,1.14-.71,1.68-1.09-.92-2.06-2.11-3.97-3.54-5.8h0Z"/>
            <path class="cls-6" d="M46.17,19.4c-.36-1.28-.84-2.49-1.41-3.61-.65-1.27-1.42-2.43-2.3-3.49-7.4-8.91-22.07-9.91-29.81.42-2.2,2.93-3.41,6.17-3.76,9.41-.15,1.4-.14,2.79.01,4.16.26,2.27.93,4.47,1.96,6.5.84.28,1.77.47,2.76.58-1.88-2.81-2.71-6.04-2.65-9.24.03-1.35.22-2.7.56-4.01,1.56-6.01,6.32-11.23,13.27-12.43,5.32-.92,10.58.86,14.36,4.36.99.92,1.88,1.96,2.65,3.09.9,1.35,1.63,2.84,2.13,4.45-.66-.78-1.23-1.63-1.88-2.42-.62-.76-1.27-1.49-1.94-2.18-1.05-1.07-2.17-2.04-3.41-2.88-.78-.53-1.6-1-2.47-1.41-8.67-4.07-17.3.63-20.33,7.96-.53,1.28-.89,2.64-1.05,4.05-.33,2.93.21,6.06,1.89,9.11.3.54.71,1.11,1.06,1.7.72.02,1.45,0,2.18-.03-.61-1.31-1.5-2.46-2.11-3.93-1.17-2.8-1.29-5.7-.61-8.34.39-1.53,1.06-2.97,1.94-4.26,2.55-3.71,6.95-6.12,12.04-5.55,1.41.16,2.72.52,3.94,1.04,1.48.63,2.83,1.5,4.07,2.54,1.98,1.65,3.68,3.71,5.18,5.88.47.68,1.56,2.29,2.03,3.4.66-.54,1.25-1.1,1.77-1.68.17-.19.33-.37.47-.55-.12-.87-.3-1.75-.55-2.63h0Z"/>
          </g>
        </g>
        <path class="cls-3" d="M70.56,12.87h59.57c.76,0,1.52.09,2.26.27,2.49.61,7.05,2.57,7.49,8.83.61,8.66-7.78,9.79-7.78,9.79l9.98,9.48h-10.24l-12.54-11.32v11.47h-7.68v-19.51h7.63v2.92h10.96c.71,0,1.4-.32,1.81-.9.25-.35.42-.8.39-1.4-.06-1.09-.69-1.6-1.25-1.86-.42-.2-.88-.29-1.34-.29h-60.07c-.33,0-.66.07-.96.21-.4.2-.82.56-.79,1.22.05,1.23,1.13,1.64,1.38,1.69.19.04,6.33.02,9.33,0,1.52,0,3.03.3,4.42.93,1.98.89,4.34,2.49,4.63,5.17,0,0-1.23-3.23.51-7.63h8.35s-3.07,3.89-1.38,7.33c1.11,2.25,2.35,3.36,3.67,4.01,1.03.51,2.17.75,3.32.75h7.81v7.38h-7.99c-2.94,0-5.84-.81-8.32-2.41-2.27-1.47-4.5-3.78-5.36-7.38,0,0,.61,3.48-1.95,6.71-2.56,3.23-6.14,2.92-6.14,2.92h-20.22l3.23-7.12h16.15c.37,0,.75-.09,1.07-.28.36-.22.72-.59.7-1.2-.05-1.23-.72-1.59-1.38-1.69h-10.11c-1.79,0-3.55-.46-5.07-1.4-1.98-1.22-4.02-3.49-4.22-7.67-.24-4.92,2.94-7.17,5.59-8.18,1.45-.55,2.99-.81,4.54-.81Z"/>
      </g>
    </g>
  </g>
</svg>