<?xml version="1.0" encoding="UTF-8"?>
<svg id="Layer_2" data-name="Layer 2" xmlns="http://www.w3.org/2000/svg" viewBox="0 0 155.79 31.85">
  <g id="Layer_1-2" data-name="Layer 1">
    <g>
      <path d="M155.79,31.17h-6.29v-6.12h6.29v6.12Z"/>
      <path d="M150.09,8.73c.49,0,.93.03,1.33.09v4.97h-1.37c-2.05,0-3.64.53-4.75,1.58-1.08,1.03-1.63,2.55-1.63,4.58v11.22h-5.39V9.08h5.22v3.94c1.23-2.85,3.42-4.28,6.59-4.28Z"/>
      <path d="M136.06,4.84h-1.88c-1.86,0-2.78.88-2.78,2.65v1.58h4.54v4.11h-4.54v17.98h-5.35V13.19h-3.42v-4.11h3.42v-1.67c0-2.14.6-3.81,1.8-5.01,1.2-1.23,3.01-1.84,5.44-1.84,1.08,0,2.01.04,2.78.13v4.15Z"/>
      <path d="M115.14,11.94V.68h5.39v30.48h-5.22v-3.08c-1.63,2.4-3.95,3.6-6.98,3.6s-5.47-1.06-7.23-3.17c-1.8-2.11-2.7-4.91-2.7-8.39s.9-6.35,2.7-8.43c1.74-2.08,4.15-3.13,7.23-3.13s5.24,1.13,6.81,3.38ZM103.92,20.29c0,2.28.5,4.01,1.5,5.18,1,1.17,2.38,1.76,4.15,1.76s3.17-.61,4.2-1.84c1-1.23,1.5-2.98,1.5-5.27s-.5-4.04-1.5-5.27c-1-1.23-2.4-1.84-4.2-1.84s-3.13.64-4.15,1.93c-1,1.28-1.5,3.07-1.5,5.35Z"/>
      <path d="M87.89,8.56c2.4,0,4.28.7,5.65,2.1,1.4,1.37,2.1,3.32,2.1,5.87v14.64h-5.39v-13.74c0-2.8-1.38-4.2-4.15-4.2-1.37,0-2.54.5-3.51,1.5-.94.97-1.41,2.33-1.41,4.07v12.37h-5.39V9.08h5.22v3.17c1.68-2.45,3.98-3.68,6.89-3.68Z"/>
      <path d="M66.64,21.45v-12.37h5.39v22.09h-5.22v-3.21c-1.68,2.48-4,3.72-6.94,3.72-2.37,0-4.25-.69-5.65-2.05-1.37-1.4-2.05-3.37-2.05-5.91v-14.64h5.39v13.74c0,2.8,1.38,4.2,4.15,4.2,1.37,0,2.53-.49,3.47-1.46.97-1,1.46-2.37,1.46-4.11Z"/>
      <path d="M49.97,20.12c0,3.48-1.03,6.28-3.08,8.39-2.05,2.11-4.77,3.17-8.13,3.17s-6.08-1.06-8.13-3.17c-2.08-2.08-3.13-4.88-3.13-8.39s1.04-6.31,3.13-8.39c2.05-2.11,4.77-3.17,8.13-3.17s6.08,1.04,8.13,3.13c2.05,2.08,3.08,4.89,3.08,8.43ZM34.52,25.39c1.03,1.23,2.44,1.84,4.24,1.84s3.2-.61,4.2-1.84c1.03-1.26,1.54-3.01,1.54-5.27s-.51-4-1.54-5.22c-1-1.26-2.4-1.88-4.2-1.88s-3.21.61-4.24,1.84c-1,1.23-1.5,2.98-1.5,5.27s.5,4.04,1.5,5.27Z"/>
      <path d="M13.06,31.85c-4.14,0-7.35-.93-9.63-2.78C1.17,27.21.03,24.56,0,21.11h5.69c.03,2.17.67,3.72,1.93,4.67,1.28.94,3.15,1.41,5.61,1.41,2,0,3.52-.37,4.58-1.11,1.06-.77,1.58-1.87,1.58-3.3,0-1.2-.46-2.11-1.37-2.74-.88-.63-2.51-1.18-4.88-1.67l-2.57-.51C4.04,16.62.77,13.54.77,8.6c0-2.63,1-4.71,3-6.25C5.77.78,8.53,0,12.07,0c4.02,0,7.06.86,9.12,2.57,2.08,1.71,3.18,4.11,3.3,7.19h-5.61c-.11-1.74-.7-3.03-1.76-3.85-1.03-.83-2.68-1.24-4.97-1.24-1.77,0-3.13.33-4.07.98-.94.66-1.41,1.58-1.41,2.78s.43,2.17,1.28,2.83c.88.66,2.44,1.21,4.67,1.67l2.65.51c3.57.71,6.14,1.78,7.71,3.21,1.6,1.4,2.4,3.34,2.4,5.82,0,2.97-1.08,5.28-3.25,6.94-2.17,1.63-5.19,2.44-9.08,2.44Z"/>
    </g>
  </g>
</svg>