<?xml version="1.0" encoding="UTF-8"?>
<svg id="Layer_2" data-name="Layer 2" xmlns="http://www.w3.org/2000/svg" xmlns:xlink="http://www.w3.org/1999/xlink" viewBox="0 0 142.53 49.89">
  <defs>
    <style>
      .cls-1 {
        fill: url(#linear-gradient-2);
      }

      .cls-2 {
        fill: url(#linear-gradient);
      }

      .cls-3 {
        fill: #1f2125;
      }
    </style>
    <linearGradient id="linear-gradient" x1="9.42" y1="-377.63" x2="40.34" y2="-377.63" gradientTransform="translate(0 -352.8) scale(1 -1)" gradientUnits="userSpaceOnUse">
      <stop offset="0" stop-color="#183ef6"/>
      <stop offset="1" stop-color="#2e5fff"/>
    </linearGradient>
    <linearGradient id="linear-gradient-2" x1="38.13" y1="-360.13" x2="45.76" y2="-360.13" xlink:href="#linear-gradient"/>
  </defs>
  <g id="Layer_1-2" data-name="Layer 1">
    <g>
      <path class="cls-2" d="M24.88,40.42c8.54,0,15.46-6.98,15.46-15.59s-6.92-15.59-15.46-15.59-15.46,6.98-15.46,15.59,6.92,15.59,15.46,15.59Z"/>
      <path class="cls-3" d="M24.74,49.89C11.1,49.89,0,38.7,0,24.94S11.1,0,24.74,0s24.74,11.19,24.74,24.94-11.1,24.94-24.74,24.94ZM24.74.38C11.3.38.38,11.4.38,24.94s10.93,24.56,24.35,24.56,24.35-11.02,24.35-24.56S38.16.38,24.74.38Z"/>
      <path class="cls-3" d="M69.23,28.43c0-.65-.24-1.15-.73-1.51-.49-.36-1.32-.68-2.5-.98-1.18-.3-2.12-.62-2.81-.97-1.57-.79-2.35-1.92-2.35-3.36,0-1.16.49-2.1,1.46-2.82s2.23-1.08,3.76-1.08,2.86.4,3.86,1.22c1,.81,1.5,1.85,1.5,3.11h-2.23c0-.79-.28-1.41-.85-1.84s-1.33-.65-2.31-.65c-.91,0-1.63.18-2.17.54-.54.36-.81.86-.81,1.51,0,.53.25.97.74,1.33.49.36,1.37.7,2.62,1.02,1.25.32,2.23.69,2.94,1.1.71.41,1.23.89,1.58,1.44.35.55.52,1.19.52,1.93,0,1.19-.49,2.13-1.46,2.81-.98.69-2.26,1.03-3.86,1.03s-3.04-.41-4.14-1.23c-1.1-.82-1.64-1.89-1.64-3.2h2.24c0,.83.31,1.47.93,1.93.62.46,1.49.69,2.61.69,1.01,0,1.78-.18,2.3-.55.52-.37.78-.85.78-1.45h0Z"/>
      <path class="cls-3" d="M76.44,26.73v5.32h-2.23v-14.15h5.63c1.64,0,2.94.4,3.91,1.21.97.81,1.46,1.89,1.46,3.25s-.47,2.45-1.41,3.22c-.94.77-2.27,1.15-3.99,1.15h-3.37,0ZM76.44,24.89h3.4c.99,0,1.77-.21,2.31-.64.55-.43.82-1.05.82-1.86s-.27-1.41-.82-1.89c-.55-.48-1.3-.73-2.25-.73h-3.46v5.13Z"/>
      <path class="cls-3" d="M94.97,28.66h-6.26l-1.32,3.39h-2.28l5.77-14.15h2l5.69,14.15h-2.27l-1.32-3.39h0ZM89.43,26.83h4.83l-2.4-6.18-2.43,6.18h0Z"/>
      <path class="cls-3" d="M111.31,27.48c-.16,1.51-.75,2.69-1.76,3.52-1.01.83-2.36,1.25-4.04,1.25-1.8,0-3.24-.6-4.33-1.79-1.09-1.19-1.63-2.84-1.63-4.94v-1.14c0-1.33.25-2.5.74-3.5.49-1.01,1.21-1.79,2.13-2.34.93-.55,2-.83,3.22-.83,1.64,0,2.95.43,3.94,1.28s1.57,2.04,1.72,3.55h-2.23c-.14-1.05-.5-1.81-1.07-2.28-.57-.47-1.35-.7-2.37-.7-1.23,0-2.18.41-2.85,1.23-.67.82-1.01,2-1.02,3.53v1.29c0,1.53.32,2.71.96,3.55.64.84,1.57,1.26,2.78,1.26,1.08,0,1.91-.23,2.48-.67.57-.45.93-1.2,1.09-2.27h2.23,0Z"/>
      <path class="cls-3" d="M122.61,25.66h-6.41v4.56h7.46v1.83h-9.69v-14.15h9.61v1.86h-7.38v4.06h6.41v1.85h0Z"/>
      <path class="cls-3" d="M128.4,32.05h-2.24v-14.15h2.24v14.15Z"/>
      <path class="cls-3" d="M142.53,19.76h-4.81v12.29h-2.23v-12.29h-4.78v-1.86h11.82v1.86Z"/>
      <path class="cls-1" d="M41.94,11.18c2.11,0,3.82-1.72,3.82-3.85s-1.71-3.85-3.82-3.85-3.82,1.72-3.82,3.85,1.71,3.85,3.82,3.85Z"/>
    </g>
  </g>
</svg>