<?xml version="1.0" encoding="UTF-8"?>
<svg id="Layer_2" data-name="Layer 2" xmlns="http://www.w3.org/2000/svg" viewBox="0 0 178.11 31.49">
  <defs>
    <style>
      .cls-1 {
        fill: #8e80ff;
      }
    </style>
  </defs>
  <g id="Layer_1-2" data-name="Layer 1">
    <g>
      <path class="cls-1" d="M48.8,10.57c-1.38-.5-2.93-.91-4.63-1.21l-1.28-.23c-1.04-.18-1.86-.45-2.46-.8-.61-.35-.91-.89-.91-1.62,0-.67.29-1.19.87-1.58.58-.38,1.42-.57,2.51-.57s2.02.24,2.76.73c.75.49,1.24,1.31,1.48,2.46l5.34-1.64c-.52-1.83-1.61-3.3-3.29-4.43-1.67-1.12-3.77-1.69-6.3-1.69-2.68,0-4.84.6-6.48,1.8-1.64,1.2-2.46,2.93-2.46,5.18,0,1.49.4,2.71,1.19,3.65.79.94,1.84,1.68,3.15,2.21,1.31.53,2.75.95,4.33,1.25l1.28.23c1.34.24,2.31.55,2.92.94.61.38.91.92.91,1.62s-.32,1.29-.96,1.76c-.64.47-1.63.71-2.97.71-.88,0-1.7-.13-2.44-.39-.75-.26-1.37-.69-1.87-1.3-.5-.61-.86-1.45-1.07-2.51l-5.29,1.37c.4,2.37,1.53,4.2,3.42,5.48,1.89,1.28,4.3,1.92,7.25,1.92s5.2-.65,6.91-1.94c1.72-1.29,2.58-3.12,2.58-5.5,0-1.58-.4-2.84-1.21-3.76-.81-.93-1.9-1.64-3.29-2.14h0Z"/>
      <path class="cls-1" d="M77.37,3.31C74.99,1.11,71.8,0,67.78,0s-7.21,1.1-9.58,3.31c-2.34,2.17-3.52,5.27-3.56,9.29.03,4.02,1.22,7.12,3.56,9.29,1.76,1.64,3.99,2.67,6.66,3.09v1.41c0,1.55.46,2.79,1.39,3.72.93.93,2.14,1.39,3.63,1.39h4.79v-4.66h-2.69c-.85,0-1.28-.45-1.28-1.37v-.49c2.68-.42,4.9-1.45,6.66-3.09,2.34-2.17,3.52-5.27,3.56-9.29-.03-4.02-1.22-7.12-3.56-9.29ZM73.03,17.85c-1.25,1.31-2.99,1.96-5.25,1.96s-3.96-.65-5.22-1.96c-1.26-1.31-1.89-3.06-1.89-5.25s.63-3.94,1.89-5.25c1.26-1.31,3-1.96,5.22-1.96s4,.65,5.25,1.96c1.25,1.31,1.87,3.06,1.87,5.25s-.62,3.94-1.87,5.25Z"/>
      <path class="cls-1" d="M99.71,1.49C98.07.5,96.14,0,93.92,0s-4.23.48-5.93,1.44c-1.7.96-3.03,2.31-3.97,4.06-.94,1.75-1.42,3.81-1.42,6.18v.55c0,2.37.48,4.43,1.44,6.18.96,1.75,2.3,3.1,4.02,4.06,1.72.96,3.7,1.44,5.95,1.44,2.07,0,3.77-.33,5.11-.98,1.34-.65,2.41-1.45,3.22-2.37.81-.93,1.42-1.79,1.85-2.58l-4.7-2.46c-.4.85-.97,1.63-1.73,2.33-.76.7-1.95,1.05-3.56,1.05s-2.92-.49-4.02-1.46c-1.09-.97-1.67-2.24-1.73-3.79h16.47v-1.96c0-2.31-.45-4.34-1.37-6.09-.91-1.75-2.19-3.12-3.83-4.11h0ZM88.49,9.36c.21-1.31.78-2.36,1.69-3.15.91-.79,2.14-1.19,3.7-1.19s2.7.4,3.63,1.19c.93.79,1.45,1.84,1.58,3.15h-10.59Z"/>
      <path class="cls-1" d="M125,1.49c-1.32-.81-2.87-1.21-4.63-1.21-2.04,0-3.56.36-4.56,1.07-1.01.71-1.69,1.47-2.05,2.26h-.82V.64h-5.66v22.64h5.75v-11.5c0-2.1.49-3.74,1.46-4.91.97-1.17,2.34-1.76,4.11-1.76,1.55,0,2.74.43,3.58,1.28.84.85,1.25,2.13,1.25,3.83v13.05h5.75v-13.51c0-1.89-.37-3.54-1.09-4.95-.73-1.42-1.76-2.53-3.08-3.33h0Z"/>
      <path class="cls-1" d="M147.34,17.46c-.9.9-2.21,1.35-3.95,1.35-1.16,0-2.2-.25-3.12-.75-.93-.5-1.66-1.25-2.19-2.24-.53-.99-.8-2.2-.8-3.63v-.45c0-1.43.27-2.64.8-3.63.53-.99,1.26-1.73,2.19-2.24.93-.5,1.97-.75,3.12-.75s2.12.21,2.9.64c.78.43,1.38,1,1.8,1.73.42.73.7,1.55.82,2.46l5.57-1.19c-.3-1.67-.94-3.17-1.89-4.49-.96-1.32-2.21-2.37-3.76-3.12-1.55-.76-3.41-1.14-5.57-1.14s-4.17.45-5.95,1.37c-1.78.91-3.19,2.24-4.22,3.97-1.04,1.73-1.55,3.83-1.55,6.3v.64c0,2.46.52,4.56,1.55,6.3,1.04,1.73,2.44,3.06,4.22,3.97,1.78.91,3.76,1.37,5.95,1.37s4.02-.38,5.57-1.14c1.55-.76,2.81-1.8,3.76-3.12.96-1.32,1.63-2.79,2.03-4.4l-5.57-1.32c-.24,1.46-.81,2.64-1.71,3.54Z"/>
      <path class="cls-1" d="M178.11,11.69c0-2.31-.45-4.34-1.37-6.09-.91-1.75-2.19-3.12-3.83-4.11C171.27.5,169.34,0,167.12,0s-4.23.48-5.93,1.44c-1.7.96-3.03,2.31-3.97,4.06-.94,1.75-1.42,3.81-1.42,6.18v.55c0,2.37.48,4.43,1.44,6.18.96,1.75,2.3,3.1,4.02,4.06,1.72.96,3.7,1.44,5.95,1.44,2.07,0,3.77-.33,5.11-.98,1.34-.65,2.41-1.45,3.22-2.37s1.42-1.79,1.85-2.58l-4.7-2.46c-.4.85-.97,1.63-1.73,2.33-.76.7-1.95,1.05-3.56,1.05s-2.92-.49-4.02-1.46c-1.09-.97-1.67-2.24-1.73-3.79h16.47v-1.96h0ZM161.69,9.36c.21-1.31.78-2.36,1.69-3.15.91-.79,2.14-1.19,3.7-1.19s2.7.4,3.63,1.19c.93.79,1.45,1.84,1.58,3.15h-10.59Z"/>
      <path class="cls-1" d="M12.8,4.08l4.92-.34v17.1l-4.92-.34V4.08Z"/>
      <path class="cls-1" d="M0,.64l4.92-.34v23.96l-4.92-.34V.64Z"/>
      <path class="cls-1" d="M6.4,2.36l4.92-.34v20.53l-4.92-.34V2.36Z"/>
      <path class="cls-1" d="M19.21,5.79l4.92-.34v13.66l-4.92-.34V5.79Z"/>
    </g>
  </g>
</svg>