<?xml version="1.0" encoding="UTF-8"?>
<svg id="Layer_2" data-name="Layer 2" xmlns="http://www.w3.org/2000/svg" viewBox="0 0 146.57 43.17">
  <defs>
    <style>
      .cls-1 {
        fill: #222;
      }

      .cls-2 {
        fill: #009045;
      }
    </style>
  </defs>
  <g id="Layer_1-2" data-name="Layer 1">
    <g>
      <g>
        <polygon class="cls-2" points="19.52 23.82 27.66 6.18 21.34 0 4.83 16.88 19.52 23.82"/>
        <polygon class="cls-2" points="31.11 9.55 21.76 29.81 21.48 29.68 21.44 29.76 1.47 20.33 0 21.83 21.83 43.17 43.17 21.34 31.11 9.55"/>
      </g>
      <g>
        <path class="cls-1" d="M72.28,10.35c-3.33,0-6.03,1.04-8.1,3.13-2.07,2.11-3.1,4.87-3.1,8.28s1.03,6.17,3.1,8.28c2.07,2.09,4.76,3.13,8.1,3.13s6.03-1.04,8.1-3.13c2.07-2.11,3.1-4.87,3.1-8.28s-1.03-6.17-3.1-8.28c-2.07-2.09-4.76-3.13-8.1-3.13ZM76.51,26.82c-1.08,1.23-2.49,1.84-4.23,1.84s-3.16-.61-4.2-1.84c-1.06-1.21-1.59-2.89-1.59-5.06s.53-3.85,1.59-5.06c1.04-1.23,2.44-1.84,4.2-1.84s3.15.61,4.23,1.84c1.06,1.21,1.59,2.89,1.59,5.06s-.53,3.85-1.59,5.06Z"/>
        <path class="cls-1" d="M145.56,23.17c-.67-.98-1.61-1.69-2.79-2.12,1.94-.92,2.91-2.46,2.91-4.63,0-1.68-.62-3.03-1.87-4.05-.6-.5-1.34-.87-2.22-1.13l-.71,8.91-3.8,3.41h1.28c1.92,0,2.88.83,2.88,2.48,0,.8-.26,1.41-.77,1.84-.49.43-1.2.64-2.12.64h-5.18v-.76l-3.83,4.9h9.32c2.6,0,4.56-.55,5.89-1.66,1.35-1.12,2.02-2.69,2.02-4.69,0-1.15-.34-2.2-1.01-3.16Z"/>
        <polygon class="cls-1" points="61.86 10.85 43.24 10.85 43.24 15.48 49.93 15.48 49.93 32.68 55.14 32.68 55.14 15.48 61.86 15.48 61.86 10.85"/>
        <rect class="cls-1" x="85.26" y="10.85" width="5.18" height="21.84"/>
        <path class="cls-1" d="M133.17,23.81v-.24h.11l1.87-3.93h-1.98v-4.66h4.2l1.94-4.09c-.32-.02-.62-.05-.96-.05h-10.37v21.84h.96l4.22-8.87Z"/>
        <rect class="cls-1" x="120.1" y="10.85" width="5.18" height="21.84"/>
        <path class="cls-1" d="M106.77,20.14c-.49,1.74-.98,3.58-1.47,5.52-.61-2.29-1.11-4.1-1.5-5.43l-2.88-9.38h-7.76v21.84h4.94v-6.41c0-3.58-.05-7.08-.15-10.52.51,1.84.99,3.49,1.44,4.94l3.77,11.99h4.23l3.77-11.99c.59-1.82,1.08-3.48,1.47-4.97-.12,2.96-.18,6.48-.18,10.55v6.41h4.94V10.85h-7.76l-2.85,9.29Z"/>
      </g>
    </g>
  </g>
</svg>