<?xml version="1.0" encoding="UTF-8"?>
<svg id="Layer_2" data-name="Layer 2" xmlns="http://www.w3.org/2000/svg" xmlns:xlink="http://www.w3.org/1999/xlink" viewBox="0 0 148 26">
  <defs>
    <style>
      .cls-1 {
        fill: none;
      }

      .cls-2 {
        fill: #ffa300;
      }

      .cls-3 {
        fill: #a2c02f;
      }

      .cls-4 {
        fill: #707372;
      }

      .cls-5 {
        fill: #dc4405;
      }

      .cls-6 {
        clip-path: url(#clippath);
      }
    </style>
    <clipPath id="clippath">
      <rect class="cls-1" width="148" height="26"/>
    </clipPath>
  </defs>
  <g id="Layer_1-2" data-name="Layer 1">
    <g class="cls-6">
      <g>
        <path class="cls-4" d="M73.49,2.87c-.47,0-.91.19-1.24.53-.33.34-.52.79-.52,1.27v17.64c0,.49.19.96.53,1.31.34.35.8.54,1.28.54s.94-.19,1.28-.54c.34-.35.53-.82.53-1.31V4.66c0-.48-.19-.93-.52-1.27-.33-.34-.78-.53-1.24-.53"/>
        <path class="cls-4" d="M90.88,20.66h-7.64V4.7c0-.49-.19-.96-.53-1.31-.34-.35-.8-.54-1.28-.54s-.94.19-1.28.54c-.34.35-.53.82-.53,1.31v17.45c0,.48.19.93.52,1.27.33.34.78.53,1.24.53h9.51c.23.02.46,0,.68-.07.22-.07.42-.19.6-.35.17-.16.31-.35.4-.57.09-.22.14-.45.14-.68s-.05-.47-.14-.69c-.09-.22-.23-.41-.4-.57-.17-.16-.37-.28-.6-.35-.22-.07-.45-.1-.68-.07"/>
        <path class="cls-4" d="M97.11,2.87c-.47,0-.91.19-1.24.53-.33.34-.52.79-.52,1.27v17.64c0,.49.19.96.53,1.31.34.35.8.54,1.28.54s.94-.19,1.28-.54c.34-.35.53-.82.53-1.31V4.66c0-.48-.19-.93-.52-1.27-.33-.34-.78-.53-1.24-.53"/>
        <path class="cls-4" d="M45.48,24.17c-.47.1-.95,0-1.35-.27-.4-.27-.67-.69-.76-1.16-.09-.48,0-.97.27-1.37.26-.4.67-.68,1.14-.78.82-.34,1.52-.93,2-1.69.48-.76.72-1.65.69-2.56V4.68c0-.49.19-.96.53-1.31.34-.35.81-.54,1.29-.54s.95.2,1.29.54c.34.35.53.82.53,1.31v11.66c.03,1.64-.42,3.24-1.31,4.61-.88,1.37-2.15,2.43-3.64,3.05-.22.09-.45.14-.69.14"/>
        <path class="cls-4" d="M40.08,24.14c-.24,0-.48-.05-.7-.14-1.46-.64-2.69-1.7-3.55-3.06-.86-1.36-1.3-2.94-1.27-4.56V4.72c0-.49.19-.96.53-1.31s.8-.54,1.28-.54.94.19,1.28.54.53.82.53,1.31v11.66c-.03.89.2,1.77.67,2.52s1.15,1.34,1.96,1.69c.22.09.43.22.6.4.17.17.3.38.39.6.09.23.13.47.13.71,0,.24-.06.48-.16.71-.14.35-.38.65-.7.86-.32.2-.69.3-1.06.27"/>
        <path class="cls-4" d="M141.38,11.83c-3.98-.97-4.91-1.69-4.91-3.3,0-1.38,1.23-2.47,3.36-2.47,1.7.04,3.34.59,4.74,1.58.29.18.61.27.95.27.45,0,.89-.18,1.21-.49.33-.32.52-.75.54-1.21,0-.3-.06-.59-.21-.85-.14-.26-.35-.47-.6-.62-1.93-1.32-4.21-2-6.53-1.95-4.1,0-7.04,2.49-7.04,6.1,0,3.87,2.48,5.2,6.86,6.28,3.82.9,4.65,1.79,4.65,3.21,0,1.56-1.41,2.65-3.64,2.65-1.16,0-2.31-.23-3.38-.7-.25-.03-.5,0-.74.07-.24.08-.46.2-.65.37-.19.17-.33.38-.44.61-.1.23-.15.49-.15.74.02.24.08.47.2.68.11.21.27.39.46.54,1.47.58,3.03.88,4.61.88,4.33,0,7.36-2.35,7.36-6.28,0-3.48-2.24-5.07-6.6-6.15"/>
        <path class="cls-4" d="M67.4,3.05h-12.52c-.49,0-.96.2-1.31.55-.35.35-.54.83-.54,1.33s.19.98.54,1.33c.35.35.82.55,1.31.55h4.42v15.44c0,.5.19.98.54,1.33.35.35.82.55,1.31.55s.96-.2,1.31-.55c.35-.35.54-.83.54-1.33V6.81h4.4c.49,0,.96-.2,1.31-.55.35-.35.54-.83.54-1.33s-.19-.98-.54-1.33c-.35-.35-.82-.55-1.31-.55Z"/>
        <path class="cls-4" d="M115.42,6.81c.49,0,.96-.2,1.31-.55.35-.35.54-.83.54-1.33s-.19-.98-.54-1.33c-.35-.35-.82-.55-1.31-.55h-12.53c-.49,0-.96.2-1.31.55-.35.35-.54.83-.54,1.33s.19.98.54,1.33c.35.35.82.55,1.31.55h4.42v15.44c0,.5.19.98.54,1.33.35.35.82.55,1.31.55s.96-.2,1.31-.55c.35-.35.54-.83.54-1.33V6.81h4.42Z"/>
        <path class="cls-4" d="M125.75,3.64c-.09-.24-.22-.45-.38-.64-.17-.18-.37-.33-.59-.44-.22-.1-.47-.16-.71-.17-.25,0-.49.03-.72.12-.23.09-.44.22-.62.39-.18.17-.33.38-.43.6-.1.23-.16.47-.17.73,0,.25.03.5.12.74l3.87,10.4h-4.79l1.27-3.46c.09-.24.12-.49.12-.74,0-.25-.07-.5-.17-.73-.1-.23-.25-.43-.43-.6-.18-.17-.39-.3-.62-.39-.23-.09-.48-.13-.72-.12-.25,0-.49.07-.71.17-.22.1-.43.25-.59.44-.17.18-.3.4-.38.64l-4.1,11.05c-.08.23-.12.48-.11.73.01.25.07.49.17.72.1.22.25.43.42.6.18.17.39.3.62.38.21.09.43.13.65.13.38,0,.75-.11,1.07-.33.31-.22.56-.53.69-.89l1.41-3.8h7.6l1.43,3.8c.13.36.38.68.69.89s.69.33,1.07.33c.22,0,.44-.04.65-.13.24-.08.45-.2.64-.37.18-.17.33-.37.43-.6.1-.23.15-.48.15-.73,0-.25-.05-.5-.15-.73l-6.64-17.97Z"/>
        <path class="cls-3" d="M18.98,14.2c2.23,1.05,4.6,1.75,7.04,2.08.46-1.83.6-3.73.42-5.61C24.98.57,13.68-.82,10.6,3.39c4.95-.5,9.49,4.82,8.26,10.76"/>
        <path class="cls-2" d="M10.16,20.42C4.47,15.37,4.33,3.25,11.49,0c-2.21.19-4.34.97-6.16,2.27-1.82,1.29-3.27,3.06-4.21,5.11C.18,9.42-.21,11.69-.01,13.94c.2,2.25.97,4.41,2.25,6.26,2.41,1.36,4.86,1.15,7.92.22Z"/>
        <path class="cls-2" d="M12.13,19.58c.9-.5,1.71-1.14,2.41-1.9-3.84-2.4-5.93-7.82-6.14-11.58v-.23c-.94,2.4-1.19,5.02-.73,7.56.46,2.54,1.63,4.89,3.35,6.79.4-.16.8-.35,1.18-.56"/>
        <path class="cls-2" d="M10.7,8.98c.1,1.59.53,3.14,1.28,4.55.74,1.4,1.78,2.62,3.03,3.58.47-.61.84-1.29,1.13-2.01-2.37-1.44-4.27-3.57-5.44-6.11Z"/>
        <path class="cls-5" d="M18.25,16.73c-1.06,2.2-2.78,4-4.91,5.13-1.91,1.04-4.03,1.58-6.2,1.58-.71,0-1.43-.07-2.13-.18,1.56,1.2,3.35,2.03,5.26,2.46,1.91.42,3.88.42,5.79,0,1.91-.43,3.7-1.27,5.26-2.46,1.56-1.2,2.84-2.72,3.77-4.47-2.35-.38-4.65-1.06-6.83-2.04Z"/>
      </g>
    </g>
  </g>
</svg>